<?xml version="1.0" encoding="UTF-8" standalone="no"?>
<!-- Created with Inkscape (http://www.inkscape.org/) -->

<svg
   width="206mm"
   height="96mm"
   viewBox="0 0 206 96"
   version="1.1"
   id="svg5"
   inkscape:version="1.1.2 (0a00cf5339, 2022-02-04)"
   sodipodi:docname="flatterer-with-text.svg"
   inkscape:export-filename="/home/david/projects/jsonlinesrust/docs/_static/flatterer.png"
   inkscape:export-xdpi="96"
   inkscape:export-ydpi="96"
   xmlns:inkscape="http://www.inkscape.org/namespaces/inkscape"
   xmlns:sodipodi="http://sodipodi.sourceforge.net/DTD/sodipodi-0.dtd"
   xmlns="http://www.w3.org/2000/svg"
   xmlns:svg="http://www.w3.org/2000/svg"
   xmlns:rdf="http://www.w3.org/1999/02/22-rdf-syntax-ns#"
   xmlns:cc="http://creativecommons.org/ns#">
  <sodipodi:namedview
     id="namedview7"
     pagecolor="#ffffff"
     bordercolor="#666666"
     borderopacity="1.0"
     inkscape:pageshadow="2"
     inkscape:pageopacity="1"
     inkscape:pagecheckerboard="0"
     inkscape:document-units="mm"
     showgrid="false"
     height="147mm"
     inkscape:zoom="0.82466874"
     inkscape:cx="375.90851"
     inkscape:cy="230.39554"
     inkscape:window-width="1920"
     inkscape:window-height="1007"
     inkscape:window-x="0"
     inkscape:window-y="0"
     inkscape:window-maximized="1"
     inkscape:current-layer="text81817"
     width="128mm" />
  <defs
     id="defs2" />
  <g
     inkscape:label="Layer 1"
     inkscape:groupmode="layer"
     id="layer1"
     style="display:inline">
    <g
       aria-label="}"
       transform="matrix(-1.0320499,0.0103059,0.00139777,-0.96895936,0,0)"
       id="text1815-3-7"
       style="font-size:29.9735px;line-height:125%;font-family:'Source Code Variable';-inkscape-font-specification:'Source Code Variable';letter-spacing:0px;word-spacing:0px;display:inline;fill:#aaccff;stroke-width:0.281001px">
      <path
         d="m -30.404882,-19.799707 h 1.828383 c 3.776661,0 5.545098,-0.899205 5.545098,-3.986475 0,-2.158092 -0.269762,-3.746687 -0.269762,-5.784885 0,-1.138993 0.779311,-2.30796 4.316184,-2.337933 v -1.528649 c -3.536873,-0.02997 -4.316184,-1.19894 -4.316184,-2.337933 0,-1.88833 0.269762,-3.716714 0.269762,-5.784885 0,-3.087271 -1.768437,-4.016449 -5.545098,-4.016449 h -1.828383 v 1.438728 h 1.558622 c 3.027323,0 3.746687,0.749337 3.746687,2.727588 0,1.70849 -0.179841,3.536873 -0.179841,5.425204 0,1.918304 0.59947,2.877456 2.697615,3.237138 v 0.119894 c -2.098145,0.359682 -2.697615,1.348807 -2.697615,3.267111 0,2.038198 0.179841,3.59682 0.179841,5.425203 0,1.978251 -0.719364,2.727589 -3.746687,2.727589 h -1.558622 z"
         id="path897" />
    </g>
    <g
       aria-label="}"
       transform="matrix(1.0320499,-0.0103059,-0.00139777,0.96895936,0,0)"
       id="text1815-3-7-6"
       style="font-size:32.4138px;line-height:125%;font-family:'Source Code Variable';-inkscape-font-specification:'Source Code Variable';letter-spacing:0px;word-spacing:0px;display:inline;fill:#aaccff;stroke-width:0.30388px">
      <path
         d="m 51.857171,81.424242 h 1.977241 c 4.084139,0 5.996553,-0.972414 5.996553,-4.311035 0,-2.333793 -0.291724,-4.051725 -0.291724,-6.255863 0,-1.231724 0.842759,-2.495863 4.667587,-2.528276 V 66.675964 C 60.382,66.64355 59.539241,65.379412 59.539241,64.147687 c 0,-2.042069 0.291724,-4.019311 0.291724,-6.255863 0,-3.338621 -1.912414,-4.343449 -5.996553,-4.343449 h -1.977241 v 1.555862 h 1.685517 c 3.273794,0 4.051725,0.810345 4.051725,2.949656 0,1.847587 -0.194483,3.824828 -0.194483,5.866898 0,2.074483 0.648276,3.111725 2.917242,3.50069 v 0.129655 c -2.268966,0.388966 -2.917242,1.458621 -2.917242,3.533104 0,2.204139 0.194483,3.889656 0.194483,5.866898 0,2.139311 -0.777931,2.949656 -4.051725,2.949656 h -1.685517 z"
         id="path918" />
    </g>
    <g
       aria-label="flatterer"
       id="text81817"
       style="font-size:25.4px;line-height:125%;font-family:Ubuntu;-inkscape-font-specification:Ubuntu;letter-spacing:0px;word-spacing:0px;fill:#5599ff;stroke-width:0.264583px">
      <path
         d="m 93.956961,24.433617 q 0.889,0 1.524,0.127 0.635,0.1016 0.9144,0.2032 l -0.3302,2.032 q -0.2794,-0.1016 -0.762,-0.2032 -0.4826,-0.127 -1.1684,-0.127 -1.651,0 -2.3114,0.9144 -0.6604,0.889 -0.6604,2.412999 v 1.143 h 5.08 v 1.9812 h -5.08 v 11.2268 h -2.3622 v -14.4018 q 0,-2.539999 1.2446,-3.911599 1.2446,-1.397 3.9116,-1.397 z m 8.712199,19.964399 q -2.1844,-0.0508 -3.0988,-0.9398 -0.914399,-0.889 -0.914399,-2.7686 V 24.840017 l 2.362199,-0.4064 v 15.874999 q 0,0.5842 0.1016,0.9652 0.1016,0.381 0.3302,0.6096 0.2286,0.2286 0.6096,0.3556 0.381,0.1016 0.9398,0.1778 z"
         id="path841" />
      <path
         d="m 110.11136,42.442216 q 0.8382,0 1.4732,-0.0254 0.6604,-0.0508 1.0922,-0.1524 v -3.937 q -0.254,-0.127 -0.8382,-0.2032 -0.5588,-0.1016 -1.3716,-0.1016 -0.5334,0 -1.143,0.0762 -0.5842,0.0762 -1.0922,0.3302 -0.4826,0.2286 -0.8128,0.6604 -0.3302,0.4064 -0.3302,1.0922 0,1.27 0.8128,1.778 0.8128,0.4826 2.2098,0.4826 z m -0.2032,-11.8364 q 1.4224,0 2.3876,0.381 0.9906,0.3556 1.5748,1.0414 0.6096,0.6604 0.8636,1.6002 0.254,0.9144 0.254,2.032 v 8.255 q -0.3048,0.0508 -0.8636,0.1524 -0.5334,0.0762 -1.2192,0.1524 -0.6858,0.0762 -1.4986,0.127 -0.7874,0.0762 -1.5748,0.0762 -1.1176,0 -2.0574,-0.2286 -0.9398,-0.2286 -1.6256,-0.7112 -0.6858,-0.508 -1.0668,-1.3208 -0.381,-0.8128 -0.381,-1.9558 0,-1.0922 0.4318,-1.8796 0.4572,-0.7874 1.2192,-1.27 0.762,-0.4826 1.778,-0.7112 1.016,-0.2286 2.1336,-0.2286 0.3556,0 0.7366,0.0508 0.381,0.0254 0.7112,0.1016 0.3556,0.0508 0.6096,0.1016 0.254,0.0508 0.3556,0.0762 v -0.6604 q 0,-0.5842 -0.127,-1.143 -0.127,-0.5842 -0.4572,-1.016 -0.3302,-0.4572 -0.9144,-0.7112 -0.5588,-0.2794 -1.4732,-0.2794 -1.1684,0 -2.0574,0.1778 -0.8636,0.1524 -1.2954,0.3302 l -0.2794,-1.9558 q 0.4572,-0.2032 1.524,-0.381 1.0668,-0.2032 2.3114,-0.2032 z"
         id="path843" />
      <path
         d="m 121.10955,30.936016 h 5.0038 v 1.9812 h -5.0038 v 6.096 q 0,0.9906 0.1524,1.651 0.1524,0.635 0.4572,1.016 0.3048,0.3556 0.762,0.508 0.4572,0.1524 1.0668,0.1524 1.0668,0 1.7018,-0.2286 0.6604,-0.254 0.9144,-0.3556 l 0.4572,1.9558 q -0.3556,0.1778 -1.2446,0.4318 -0.889,0.2794 -2.032,0.2794 -1.3462,0 -2.2352,-0.3302 -0.8636,-0.3556 -1.397,-1.0414 -0.5334,-0.6858 -0.762,-1.6764 -0.2032,-1.016 -0.2032,-2.3368 V 27.253017 l 2.3622,-0.4064 z"
         id="path845" />
      <path
         d="m 131.32036,30.936016 h 5.0038 v 1.9812 h -5.0038 v 6.096 q 0,0.9906 0.1524,1.651 0.1524,0.635 0.4572,1.016 0.3048,0.3556 0.762,0.508 0.4572,0.1524 1.0668,0.1524 1.0668,0 1.7018,-0.2286 0.6604,-0.254 0.9144,-0.3556 l 0.4572,1.9558 q -0.3556,0.1778 -1.2446,0.4318 -0.889,0.2794 -2.032,0.2794 -1.3462,0 -2.2352,-0.3302 -0.8636,-0.3556 -1.397,-1.0414 -0.5334,-0.6858 -0.762,-1.6764 -0.2032,-1.016 -0.2032,-2.3368 V 27.253017 l 2.3622,-0.4064 z"
         id="path847" />
      <path
         d="m 138.33076,37.565416 q 0,-1.7526 0.508,-3.048 0.508,-1.3208 1.3462,-2.1844 0.8382,-0.8636 1.9304,-1.2954 1.0922,-0.4318 2.2352,-0.4318 2.667,0 4.0894,1.6764 1.4224,1.651 1.4224,5.0546 0,0.1524 0,0.4064 0,0.2286 -0.0254,0.4318 h -9.0424 q 0.1524,2.0574 1.1938,3.1242 1.0414,1.0668 3.2512,1.0668 1.2446,0 2.0828,-0.2032 0.8636,-0.2286 1.2954,-0.4318 l 0.3302,1.9812 q -0.4318,0.2286 -1.524,0.4826 -1.0668,0.254 -2.4384,0.254 -1.7272,0 -2.9972,-0.508 -1.2446,-0.5334 -2.0574,-1.4478 -0.8128,-0.9144 -1.2192,-2.159 -0.381,-1.27 -0.381,-2.7686 z m 9.0678,-1.2954 q 0.0254,-1.6002 -0.8128,-2.6162 -0.8128,-1.0414 -2.2606,-1.0414 -0.8128,0 -1.4478,0.3302 -0.6096,0.3048 -1.0414,0.8128 -0.4318,0.508 -0.6858,1.1684 -0.2286,0.6604 -0.3048,1.3462 z"
         id="path849" />
      <path
         d="m 158.14276,30.656616 q 0.3048,0 0.6858,0.0508 0.4064,0.0254 0.7874,0.1016 0.381,0.0508 0.6858,0.127 0.3302,0.0508 0.4826,0.1016 l -0.4064,2.0574 q -0.2794,-0.1016 -0.9398,-0.2286 -0.635,-0.1524 -1.651,-0.1524 -0.6604,0 -1.3208,0.1524 -0.635,0.127 -0.8382,0.1778 v 11.0998 h -2.3622 v -12.6492 q 0.8382,-0.3048 2.0828,-0.5588 1.2446,-0.2794 2.794,-0.2794 z"
         id="path851" />
      <path
         d="m 162.33375,37.565416 q 0,-1.7526 0.508,-3.048 0.508,-1.3208 1.3462,-2.1844 0.8382,-0.8636 1.9304,-1.2954 1.0922,-0.4318 2.2352,-0.4318 2.667,0 4.0894,1.6764 1.4224,1.651 1.4224,5.0546 0,0.1524 0,0.4064 0,0.2286 -0.0254,0.4318 h -9.0424 q 0.1524,2.0574 1.1938,3.1242 1.0414,1.0668 3.2512,1.0668 1.2446,0 2.0828,-0.2032 0.8636,-0.2286 1.2954,-0.4318 l 0.3302,1.9812 q -0.4318,0.2286 -1.524,0.4826 -1.0668,0.254 -2.4384,0.254 -1.7272,0 -2.9972,-0.508 -1.2446,-0.5334 -2.0574,-1.4478 -0.8128,-0.9144 -1.2192,-2.159 -0.381,-1.27 -0.381,-2.7686 z m 9.0678,-1.2954 q 0.0254,-1.6002 -0.8128,-2.6162 -0.8128,-1.0414 -2.2606,-1.0414 -0.8128,0 -1.4478,0.3302 -0.6096,0.3048 -1.0414,0.8128 -0.4318,0.508 -0.6858,1.1684 -0.2286,0.6604 -0.3048,1.3462 z"
         id="path853" />
      <path
         d="m 182.14575,30.656616 q 0.3048,0 0.6858,0.0508 0.4064,0.0254 0.7874,0.1016 0.381,0.0508 0.6858,0.127 0.3302,0.0508 0.4826,0.1016 l -0.4064,2.0574 q -0.2794,-0.1016 -0.9398,-0.2286 -0.635,-0.1524 -1.651,-0.1524 -0.6604,0 -1.3208,0.1524 -0.635,0.127 -0.8382,0.1778 v 11.0998 h -2.3622 v -12.6492 q 0.8382,-0.3048 2.0828,-0.5588 1.2446,-0.2794 2.794,-0.2794 z"
         id="path855" />
    </g>
    <g
       aria-label="]"
       transform="matrix(-1.0320499,0.0103059,0.00139777,-0.96895936,0,0)"
       id="text1815-3-7-9"
       style="font-size:29.9735px;line-height:125%;font-family:'Source Code Variable';-inkscape-font-specification:'Source Code Variable';letter-spacing:0px;word-spacing:0px;display:inline;fill:#aaccff;stroke-width:0.281001px">
      <path
         d="m -19.894123,-20.059266 h 8.272686 v -25.77721 h -8.272686 v 1.438728 h 6.324408 v 22.929727 h -6.324408 z"
         id="path876" />
    </g>
    <g
       aria-label="]"
       transform="matrix(1.0320499,-0.0103059,-0.00139777,0.96895936,0,0)"
       id="text1815-3-7-9-2"
       style="font-size:29.9735px;line-height:125%;font-family:'Source Code Variable';-inkscape-font-specification:'Source Code Variable';letter-spacing:0px;word-spacing:0px;display:inline;fill:#aaccff;stroke-width:0.281001px">
      <path
         d="m 64.815058,80.141429 h 8.272686 v -25.77721 h -8.272686 v 1.438728 h 6.324408 v 22.929727 h -6.324408 z"
         id="path939" />
    </g>
  </g>
  <g
     inkscape:groupmode="layer"
     id="layer2"
     inkscape:label="Layer 2"
     style="display:inline">
    <g
       id="g76057"
       transform="translate(-7.2865999,-13.648008)"
       style="fill:#5599ff">
      <g
         id="g67283"
         transform="matrix(0.7667846,0,0,0.73701343,-14.041221,-10.299316)"
         style="opacity:1;mix-blend-mode:normal;fill:#5599ff;fill-opacity:1;fill-rule:nonzero;stroke:#000000;stroke-opacity:1">
        <rect
           style="opacity:1;mix-blend-mode:normal;fill:#5599ff;fill-opacity:1;fill-rule:nonzero;stroke:#000000;stroke-width:0.799;stroke-linecap:butt;stroke-linejoin:miter;stroke-miterlimit:4;stroke-dasharray:none;stroke-opacity:1"
           id="rect121"
           width="66.347763"
           height="17.813614"
           x="-35.462269"
           y="-136.10988"
           transform="rotate(140.1)" />
        <path
           style="opacity:1;mix-blend-mode:normal;fill:#5599ff;fill-opacity:1;fill-rule:nonzero;stroke:#000000;stroke-width:0.864996;stroke-linecap:butt;stroke-linejoin:miter;stroke-miterlimit:4;stroke-dasharray:none;stroke-opacity:1"
           d="m 63.613341,124.23022 c -3.259646,-4.5761 -8.503234,0.3432 -9.849609,5.76594 -1.19532,4.92903 -7.466861,6.86513 -12.382464,0.83199 -3.027511,-3.71581 -2.613493,-9.56888 3.873382,-11.0328 4.803111,-0.84352 11.113757,-4.62181 6.84488,-9.3352"
           id="path1478"
           sodipodi:nodetypes="ccccc" />
        <path
           style="opacity:1;mix-blend-mode:normal;fill:#5599ff;fill-opacity:1;fill-rule:nonzero;stroke:#000000;stroke-width:0.864996;stroke-linecap:butt;stroke-linejoin:miter;stroke-miterlimit:4;stroke-dasharray:none;stroke-opacity:1"
           d="m 114.60002,81.775804 c -3.92655,-4.018486 1.84357,-8.308076 7.41904,-8.672887 5.0628,-0.303573 8.07889,-6.133139 3.01157,-12.039432 -3.12095,-3.637675 -8.95482,-4.26669 -11.54434,1.858422 -1.68074,4.577827 -6.51685,10.119667 -10.39979,5.083587"
           id="path1478-3"
           sodipodi:nodetypes="ccccc" />
      </g>
    </g>
    <text
       xml:space="preserve"
       style="font-style:normal;font-weight:normal;font-size:12.2994px;line-height:125%;font-family:sans-serif;letter-spacing:0px;word-spacing:0px;display:inline;fill:#000000;fill-opacity:1;stroke:none;stroke-width:0.307486px;stroke-linecap:butt;stroke-linejoin:miter;stroke-opacity:1"
       x="-12.720803"
       y="81.148643"
       id="text50049"
       transform="rotate(-39.875384)"><tspan
         sodipodi:role="line"
         id="tspan50047"
         style="stroke-width:0.307486px"
         x="-12.720803"
         y="81.148643" /></text>
  </g>
  <metadata
     id="metadata839">
    <rdf:RDF>
      <cc:Work
         rdf:about="">
        <cc:license
           rdf:resource="http://creativecommons.org/licenses/by/4.0/" />
      </cc:Work>
      <cc:License
         rdf:about="http://creativecommons.org/licenses/by/4.0/">
        <cc:permits
           rdf:resource="http://creativecommons.org/ns#Reproduction" />
        <cc:permits
           rdf:resource="http://creativecommons.org/ns#Distribution" />
        <cc:requires
           rdf:resource="http://creativecommons.org/ns#Notice" />
        <cc:requires
           rdf:resource="http://creativecommons.org/ns#Attribution" />
        <cc:permits
           rdf:resource="http://creativecommons.org/ns#DerivativeWorks" />
      </cc:License>
    </rdf:RDF>
  </metadata>
</svg>
